<?xml version="1.0" encoding="UTF-8"?>
<svg id="Layer_2" data-name="Layer 2" xmlns="http://www.w3.org/2000/svg" xmlns:xlink="http://www.w3.org/1999/xlink" viewBox="0 0 603.56 690.66">
  <defs>
    <style>
      .cls-1, .cls-2, .cls-3, .cls-4 {
        fill: #0094da;
      }

      .cls-2 {
        clip-rule: evenodd;
      }

      .cls-3 {
        fill-rule: evenodd;
      }

      .cls-4 {
        font-family: BradleyHandITCTT-Bold, 'Bradley Hand';
        font-size: 52.57px;
        font-weight: 700;
        stroke: #0094da;
        stroke-miterlimit: 10;
        stroke-width: 2px;
      }

      .cls-5 {
        clip-path: url(#clippath);
      }
    </style>
    <clipPath id="clippath">
      <path class="cls-2" d="M397.21,423.41c-67.38,67.38-176.54,67.38-243.92,0-67.38-67.38-67.38-176.54,0-243.92,32.52-32.52,75.97-50.52,121.96-50.52V26.24c-70.43,0-140.87,26.87-194.6,80.61-107.48,107.48-107.48,281.73,0,389.21l194.6,194.6,194.6-194.6c53.74-53.74,80.61-124.17,80.61-194.6h-102.74c0,45.99-18,89.44-50.52,121.96"/>
    </clipPath>
  </defs>
  <g id="Layer_1-2" data-name="Layer 1">
    <g>
      <g>
        <g>
          <path class="cls-3" d="M397.21,423.41c-67.38,67.38-176.54,67.38-243.92,0-67.38-67.38-67.38-176.54,0-243.92,32.52-32.52,75.97-50.52,121.96-50.52V26.24c-70.43,0-140.87,26.87-194.6,80.61-107.48,107.48-107.48,281.73,0,389.21l194.6,194.6,194.6-194.6c53.74-53.74,80.61-124.17,80.61-194.6h-102.74c0,45.99-18,89.44-50.52,121.96"/>
          <g class="cls-5">
            <rect class="cls-1" x="-26.83" y="26.24" width="577.29" height="664.42"/>
          </g>
        </g>
        <text class="cls-4" transform="translate(312.74 40.92) rotate(11.46) scale(1.03 1)"><tspan x="0" y="0">B</tspan></text>
        <text class="cls-4" transform="translate(348.01 48.01) rotate(18.78) scale(1.03 1)"><tspan x="0" y="0">Y</tspan></text>
        <text class="cls-4" transform="translate(381.9 59.54) rotate(25.95) scale(1.03 1)"><tspan x="0" y="0">D</tspan></text>
        <text class="cls-4" transform="translate(412.46 74.13) rotate(33.51) scale(1.03 1)"><tspan x="0" y="0">G</tspan></text>
        <text class="cls-4" transform="translate(445.28 95.83) rotate(41.5) scale(1.03 1)"><tspan x="0" y="0">O</tspan></text>
        <text class="cls-4" transform="translate(473.67 120.78) rotate(49.51) scale(1.03 1)"><tspan x="0" y="0">S</tspan></text>
        <text class="cls-4" transform="translate(499.29 150.08) rotate(58.66) scale(1.03 1)"><tspan x="0" y="0">Z</tspan></text>
        <text class="cls-4" transform="translate(523.74 191.14) rotate(67.33) scale(1.03 1)"><tspan x="0" y="0">C</tspan></text>
        <text class="cls-4" transform="translate(537.01 221.17) rotate(76.11) scale(1.03 1)"><tspan x="0" y="0">Z</tspan></text>
      </g>
      <circle class="cls-1" cx="281.75" cy="288.39" r="70.06"/>
    </g>
  </g>
</svg>