<?xml version="1.0" encoding="UTF-8"?>
<svg id="Layer_1" data-name="Layer 1" xmlns="http://www.w3.org/2000/svg" xmlns:xlink="http://www.w3.org/1999/xlink" viewBox="0 0 690.33 778.63">
  <defs>
    <style>
      .cls-1 {
        fill: #0094da;
      }

      .cls-2 {
        clip-rule: evenodd;
        fill: none;
      }

      .cls-3 {
        fill: #202020;
      }

      .cls-4 {
        font-family: BradleyHandITCTT-Bold, 'Bradley Hand';
        font-size: 52.57px;
        font-weight: 700;
        stroke: #000;
        stroke-miterlimit: 10;
      }

      .cls-5 {
        clip-path: url(#clippath);
      }
    </style>
    <clipPath id="clippath">
      <path class="cls-2" d="M456.05,459.73c-67.38,67.38-176.54,67.38-243.92,0-67.38-67.38-67.38-176.54,0-243.92,32.52-32.52,75.97-50.52,121.96-50.52V62.56c-70.43,0-140.87,26.87-194.6,80.61-107.48,107.48-107.48,281.73,0,389.21l194.6,194.6,194.6-194.6c53.74-53.74,80.61-124.17,80.61-194.6h-102.74c0,45.99-18,89.44-50.52,121.96"/>
    </clipPath>
  </defs>
  <g>
    <g class="cls-5">
      <g>
        <rect class="cls-1" x="32.01" y="62.56" width="577.29" height="664.42"/>
        <g>
          <path class="cls-3" d="M68.27,688.04c-.68,4.07,5.59-3.42,6.69-4.01-1.1-4.48-8.32,5.76-6.69,4.01Z"/>
          <polygon class="cls-3" points="55.51 643.1 58.2 641.78 51.73 638.84 55.51 643.1"/>
          <path class="cls-3" d="M56.92,587.97c-6.02,7.14-5.61,11.82-4.29,16.27,1.32,4.47,3.53,8.7,1.36,15.29l-2.69,3.8,9.2-3.27c-.57-5.31-2.31-10.57-3.51-15.9-1.19-5.33-1.84-10.73-.07-16.19Z"/>
          <path class="cls-3" d="M84.03,539.96c-4.83,5.11-3.81-3.25-1.78,7.67.55-1.02.86-1.41,1.25-2.06-.01-1.1.08-2.69.53-5.61Z"/>
          <path class="cls-3" d="M83.5,545.57c.08,5.35,4.15-6.51,0,0h0Z"/>
          <path class="cls-3" d="M81.91,521.61l3.98,4.45c2.91-3.48,3.89-10.41,5.85-9.4-1.99-5.88-4.95-2.5-9.84,4.96Z"/>
          <path class="cls-3" d="M73.07,520.61l1.7,2.65c1.23-1.48,1.7-2.77-1.7-2.65Z"/>
          <path class="cls-3" d="M78.32,528.84l-3.55-5.58c-2.05,2.41-6.09,5.24,1.26,2.82-3.66,1.8-.16,1.05,2.3,2.75Z"/>
          <path class="cls-3" d="M76.26,534.75c-2.86,6.01-4.7,12.65-8.72,8.07,1.25,13.22,9.86,4.93,8.72-8.07Z"/>
          <path class="cls-3" d="M44.62,594.52l-3.56,8.48,3.94,1.95c-1.95-.99,3.36-13.63-.38-10.43Z"/>
          <path class="cls-3" d="M90.5,471.78c-2.74,1.16-7.43,6.77-10.97,9.41l2.95,3.57c1.98-3.93,3.93-10.23,8.03-12.98Z"/>
          <path class="cls-3" d="M79.53,481.2l-4.44-5.43c-.78,7.67,1.41,7.69,4.44,5.43Z"/>
          <polygon class="cls-3" points="59.18 528.39 68.39 535.73 59.11 525.83 59.18 528.39"/>
          <path class="cls-3" d="M92.2,440.87l6.29,1.04c-3.14-.91-6.3-1.86-9.48-2.84l3.19,1.8Z"/>
          <path class="cls-3" d="M91.89,421.11c5.32.61,9.47-9.19,12.68-7.34-.71-4.94-5.21-7.29-9.32-9.51,2.2,3.37,1.37,8.39-3.36,16.85Z"/>
          <path class="cls-3" d="M89.3,400.04c1.25,1.65,3.54,2.88,5.96,4.22-1.17-1.79-2.93-3.27-5.96-4.22Z"/>
          <path class="cls-3" d="M76.91,461c1.71-1.57,6.16-5.23,8.21-10.79l-7.99,7.5c-.07,1-.14,2.14-.22,3.29Z"/>
          <path class="cls-3" d="M76.88,457.96l.25-.25c.29-3.6.55-6.11.67-7.2-.12.94-.39,3.18-.92,7.45Z"/>
          <path class="cls-3" d="M76.85,461.83c.03-.31.05-.54.06-.83-.79.74-1.04,1.07-.06.83Z"/>
          <path class="cls-3" d="M66.58,502.15c-2.07-1.12-4.2-3.56-6.67-3.99-2.47-.43-5.28,1.13-8.63,8.14,5.18.35,9.04-7.58,15.3-4.15Z"/>
          <path class="cls-3" d="M66.95,471.33l-2,9.85c2.05-1.36,5.1-4.67,7.18-3.51l-5.18-6.34Z"/>
          <polygon class="cls-3" points="64.56 468.4 66.95 471.33 67.69 467.7 64.56 468.4"/>
          <path class="cls-3" d="M81.21,418.38c-3.4-2.03-3.58-6.02-4.02-10.39-1.74,5.72-2.74,11.31-2.84,16.19,2.51-.54,6.98-.64,6.86-5.8Z"/>
          <path class="cls-3" d="M78.4,437.93c-.18-.16-.25-.45-.43-.6-.7.86-.92,1.38.43.6Z"/>
          <path class="cls-3" d="M78.43,362.3c-.46.43-1.05.88-1.53,1.33.48-.13.95-.28,1.44-.4l.09-.93Z"/>
          <path class="cls-3" d="M72.82,425.76c-1.66,4.53.26,5.81,2.65,6.71-.71-2.41-1.15-5.12-1.12-8.29-1.14.25-1.9.56-1.53,1.58Z"/>
          <path class="cls-3" d="M85.89,389.2c-1.79,2.69-3.31,5.53-4.7,8.43,2.64-3.07,6.81-8.7,4.7-8.43Z"/>
          <path class="cls-3" d="M80.22,434.93c.11.13.26.22.34.37,1.74-2.09.91-1.51-.34-.37Z"/>
          <path class="cls-3" d="M80.22,434.93c-1.1-1.32-3.02-1.83-4.75-2.46.58,1.95,1.38,3.63,2.5,4.86.58-.75,1.46-1.66,2.25-2.39Z"/>
          <path class="cls-3" d="M24.77,368.6c3.9-1.1,7.65.29,9.37,3.43,1.72,3.15,1.41,8.06-2.72,14.22,5.79,6.53,31.04-9.78,45.47-22.62-3.37,1.06-6.47,2.34-10.91-4.62-2.14,2.33-4.7,8.14-7.56,12.83-2.87,4.68-6.04,8.26-9.5,5.89-3.88-10.26,2.82-10.77,7-18-4.87,4.25-8.35,1.86-12.44-.7-4.08-2.55-8.78-5.29-15.95-1.41l5.05,8.76c-2.22,1.04-5.77-1.51-7.8,2.21Z"/>
          <path class="cls-3" d="M75.72,380.35l.86,3.14c1.43-4.6,4.57-8.79,10.76-16.49-3.6-4.28-6.44-4.38-9.01-3.76l-1.5,17.84-1.11-.73Z"/>
          <path class="cls-3" d="M76.21,399.37c-8.16.98-11.56-6.16-20.61,3.1.43,10.42,6.8,4.38,10.24,9.04-.85-8.04.27-7.33,2.22-6.43,1.95.91,4.71,1.98,7.2-5.15,1.32,2.66,1.67,5.43,1.93,8.06,1.07-3.48,2.4-6.95,4.01-10.36-.2.24-.34.41-.52.61v.07s-.05.01-.1.03c-1.06,1.19-1.7,1.71-1.08.63-.09-.01-.12-.2-.16-.27-1.13.4-2.12.54-3.08.64,1.83-5.62,2.15-1.72,3.08-.64.42-.13.8-.18,1.24-.36.03-.03.07-.07.1-.1l-4.09-14.75c-1.25,4.05-1.12,8.42-.37,15.88Z"/>
          <path class="cls-3" d="M34.66,506.93c.68-.95,1.25-1.26,1.81-1.63-.95-.58-1.6-.64-1.81,1.63Z"/>
          <path class="cls-3" d="M39.4,496.91c1.08.66,4.2-.1,3.37,4.51-2.36,4.98-3.73,2.19-6.3,3.89,2.07,1.31,5.52,5.44,9.38-4.63l-1.05-.61c2.72-8.67,12.68-23.18,13.76-22.56-7.13,6.04-12.2,10.69-19.15,19.4Z"/>
          <path class="cls-3" d="M55.32,447.77l-3.77-12.42-7.09,10.86,4.21-2.48c-1.73,9.09,3.44,4.67,6.65,4.04Z"/>
          <path class="cls-3" d="M82.66,359.07l8.85-1.67c-4.11-.99-8.23-2.02-12.37-3.1l3.53,4.76Z"/>
          <polygon class="cls-3" points="82.05 341.44 89.82 339.26 85.24 336.23 82.05 341.44"/>
          <path class="cls-3" d="M659.18,273.87l2.35,4.35c-.72-2.06-1.52-3.38-2.35-4.35Z"/>
          <path class="cls-3" d="M659.74,242.37l-4.1-.77c2.26,1.46,3.92,2.06,4.1.77Z"/>
          <path class="cls-3" d="M207.44,114.86c6.34,7.76,13.41,19.8,12.65,10.45l-1.95-9.11c-4.43,1.63-7.82.62-10.7-1.34Z"/>
          <path class="cls-3" d="M531.04,60.46c-.6-.9-1.23-1.83-1.85-2.76-1.54,3.11-2.99,6-4.28,8.7,1.84-1.86,3.94-3.85,6.13-5.95Z"/>
          <path class="cls-3" d="M535.51,22.76l8.35,5.88c-1.88-2.05-4.56-4.02-8.35-5.88Z"/>
          <path class="cls-3" d="M668.84,445.87l9.27,5.08c-.04-7.94-4.72-4.45-9.27-5.08Z"/>
          <path class="cls-3" d="M81.59,157.07c3.58-5.55,5.1-9.76,5.56-13.39-5.25,6.66-13.08,12.59-5.56,13.39Z"/>
          <path class="cls-3" d="M562.5,261.47c1.65,2.66,3.51,3.8,5.54,3.72-1.55-2.74-3.3-4.29-5.54-3.72Z"/>
          <path class="cls-3" d="M87.2,128.88c-.92.97-1.38,1.9-2.15,2.88,1.5,3.64,2.7,7.29,2.1,11.92,3.89-4.94,6.34-10.28.05-14.8Z"/>
          <path class="cls-3" d="M243.04,773.33c-.3-.37-.79-.57-1.01-1.02-.71,1.1-.07,1.18,1.01,1.02Z"/>
          <path class="cls-3" d="M111.16,696.93c2.1-.5,4.91-.61,7.63-.79-.88-.43-3.07-.3-7.63.79Z"/>
          <path class="cls-3" d="M87.4,267.89c.5,3.65.96.35,0,0h0Z"/>
          <path class="cls-3" d="M52.38,296.27c-.97-.57-2.23-.85-4.25-.38,2.1-.27,3.44-.09,4.25.38Z"/>
          <path class="cls-3" d="M30.65,92.56c0-.12.04-.22.04-.35-1.78,1.27-1.44,1.05-.04.35Z"/>
          <path class="cls-3" d="M83.29,274.68c1.1-1.72,2.04-3.61,2.7-5.57-.7.97-1.58,2.67-2.7,5.57Z"/>
          <path class="cls-3" d="M87.47,272.8c-.42,1.42-.66,2.51-.92,3.55,1.45.08,2.39-.59.92-3.55Z"/>
          <path class="cls-3" d="M87.02,262.71c.11,2.14-.35,4.27-1.03,6.4.62-.91,1.11-1.34,1.41-1.22-.11-1.08-.27-2.61-.38-5.18Z"/>
          <path class="cls-3" d="M600.55,754.57c-.28-.28-.6-.47-.9-.85-4.31,3.78-2.43,3.18.9.85Z"/>
          <path class="cls-3" d="M313.64,20.25c-.19.09-.29.33-.47.43.19.1.43.23.6.34l-.14-.76Z"/>
          <path class="cls-3" d="M328.3,13.47c-6.24,11.34-9.79,9.94-14.52,7.54l4.85,26.26,9.67-33.8Z"/>
          <path class="cls-3" d="M661.8,349.28l8.2-10.29c13.47,12.42,8.83,21.41,20.33,11.75-28.53-1.46-2.91-40-31.42-41.44l6-6.78c-.27,1.94,1.4,2.26,1.13,4.18,13.65-13.19-20.62-9.8-16.57-26.8,2.18-5.92,6.32-10.06,9.71-6.02l-7.05-13.2c.56-3.84,5.51-2.9,4.96.92l-2.28-20.14.84.15c-4.46-2.87-11.38-9.38-14.32-12.56,4.1-5.12,3.02,2.57,6.57,1.26l-6.9-11.15c7.41-4.54,14.57,4.7,13.51,12.4,28.47-10.41-7.16-9.25,9.47-31.72l3.61,10.53c16.17-6.79,10.31-15,20.4-26.91-5.27,2.82-25.41,23.83-32.52,11.73,2.15-3.41,3.17-7.9-2.57-14.43,10.15-.06,7.65-6.43,7.07-14.41l13.44.54c-3.88-8.62-10.72-7.94-16.76-13.02,1.32-9.61,11.72-11.6,20.49-13.87,2.13-15.39-16.68,10.63-19.22-7.59,5.14-12.8-.35-21.79-8.39-37.1,4.65-8.96,8.22,1.57,12.07-1.65l-10.72-7.94c.26-1.94,3.55-1.32,5.21-1-4.16-6.69-13.43-.55-17.07-11.07-6.49-1.24-3.13-5.55,1.27-11.09l3.1-3.9-34.07-27.06c-7.09-5.64-16.22-12.98-23.53-3.55-3.21-3.82,1.55-8.23.57-13.44-17.86,11.03-15.31,8.02-29.98,22.86l-12.5-8.82c9.18,10.08-2.55,22.01-12.82,31.82,3.26,4.87,6.04,9.14,7.91,11.17l-16.4,7.21c-1.98-2.2-.33-6.82,2.36-12.43-1.12,1.11-2.18,2.2-3.01,3.23-5.86-4.97-2.82-12.72,1.38-20.23,2,2.65,3.98,5.47,5.91,8.3,4.05-8.16,7.84-17.2,7-25.07-1.07,1.55-3.12,2.89-5.38,3.64,1.06-2.22,1.74-4.2,1.25-5.54-.56-1.41-2.27,1.56-4.95,4.99l-3.73-14.98-.9,5.95-21.45-9.37c-15.35,15.07-28.7,37.27-53.06,43.44,6.04-10.98,1.3-17.93,1.63-30.95,6.65,13.78,18.87-5.84,31.49-3.06-6.59-1.45-5.14-7.67-3.46-9.8l-22.52,12.52c.51-10.65-4.78-7.98-10.66-12.38,4.45,21.04-16.79,14.01-25.95,20.46-.57-7.05,1.63-14.28,12.81-12.56-12.33-15.84-15.94,24.7-28.04,11.24,2.73-.16,4.2.91,5.28-2.69-6.38,6.29-21.96,1.3-18.3-4.83l2.72-.14c-18.12-2.5-55.16-.16-57.87,17.71-.18-2.32,2.38-21.53,3.47-25.14l-32.33,60.09c2.85-15.34-8.09-51.86,6.94-60.55-4.31-2.18-9.65-4.74-18.75.69,2.94,2.18,7.34,22.18,3.31,23.59-11.04-17.08-7.66-9.14-21.27-23.7,4.41,3.28-.49,27.34-7.46,26.57,1.09-3.59-.58-23.73,1.97-26.24l-17.35,23.61c4.33-4.25.76-20.02-3.12-26.71,1.8,4.63-15-.42-19.63,1.92l7.36,5.49c-19.59-3.58-19.35,33.2-38.79,31.96,2.35-4.87,5.81-30.02-4.07-32.99-4.53,12.09-20.06,58.17-37.26,67.49l-3.3-6.92-13.19,7.88c8.22-18.2,31.27-56.5,43.86-71.4-7.33-5.47-2.04-8.17-13.02-7.53-3.88-6.48,5.99-9.83,9.22-10.21l-25.57-4.18c1.14,14.12-19.55,14.16-18.57,25.92l27.77-14.64c1.13,14.1-16.05,40.07-34.17,37.59-4.61-5.63,3.45-25.13,3.07-29.85-2.35,4.86-17.19,9.29-18.86,5.84l7.68-7.55c-10.08-5.31-16.46,18.71-28.57,5.24-4.18-.91-12.49-18.18-13.21-9.83,6.82,16.11,8.15,65.94,3.61,78.05-1.47-1.09-21.96-15.4-26.74-23.36-6.89-12.64,10.34-30.11,4.48-40.95-.25,3.86-4.06,8.62-5.64,10.15-4.39-3.3,1.82-11.95-7.73-10.21-1.59,14.3-19.41-1.21-4.51,12.1-6.21,2.72-8.55.51-12.69-1.09l-13.41-5.16-11.74,30.3c-.8,2.07-1.45,4.65-1.23,8.42,4.62-1.83,12.49.65,19.71,4.64,7.22,4,13.8,9.49,15.85,14.05-3.64-.44-8.38,1.79-10.55,2.88-1.29,19.17-7.78,29.92-7.88,48-3.45,1.93-7.61,11.1-13.76,7.93,2.53,2.4,7.37,4.34,7.72,9.9-12.28,12.2-1.94-12.37-16.73-2.56,8.28-.08,11.48,13.49,16.64,20.81,6.37-2.03,6.98-6.66,5.35-11.74-1.63-5.08-5.52-10.66-8.11-14.42,8.82-.86,17.85,1.75,25.68,6.6,7.83,4.87,14.46,11.99,18.48,20.49,4.3,13.75-11.36,7.85-8.88,10-1.57,13.9,6.05,18.49,12.44,22.5,6.4,4.06,11.56,7.52,5.19,19.82-5.57,5.51-11.05,6.78-16.16,7.06-5.11.29-9.84-.42-13.83,1.4-2.09-5.58-.33-10.56,1.91-15.09,2.24-4.53,4.95-8.62,4.74-12.61l-5.28,10.9c-3.69-3.12-6.49-10.73-3.28-15.64-5,4.64-5.47,16.54-5.84,30.15-.37,13.62-.65,28.9-5.17,40.87,3.67,2.95,7.48,8.55,11.87,4.29l-1.52-6.38c4.42-4.21,7.47-1.78,9.92.45,2.45,2.24,4.31,4.29,6.39-.44,3.08,3.67,7.02,7.31,9.54,11.72,2.53,4.41,3.64,9.58,1.1,16.5l-12.35,6.04c3.6-1.37,7.41-10.35,3.67-12.78,2.73,1.82-1.5,7.8-4.37,13.55-2.87,5.74-4.38,11.23,3.63,11.52,2.86-3.83,5.72-7.63,8.6-11.4,3.04,3.47,7.78,6.86,11.23,10.83,3.45,3.98,5.61,8.53,3.58,14.58,6.05-4.55,5.73-5.03,5.66-5.96-.06-.92.12-2.31,7.26-8.45-8.85,6.24-8.51-.65-8.31-7.03.21-6.35.27-12.23-9.1-4.01,8.3-6.51,10.12-10.38,11.64-14.48,1.52-4.09,2.74-8.41,9.95-15.41-4.1,1.45-7.91,5.77-5.71-3.71-1.19-.08-2.69-.62-3.58-.99.11-.3.19-.42.32-.69-.17.22-.35.4-.49.62-.61-.22-.75-.22-.17.23-1.85,2.62-4.03,4.94-6.31,6.27-9.33-1.9-8.88-16.55-13.74-20.3,2.02-5.92,4.72,1.13,9.15-2.9l-7.27-5.6c4.59-1.43,8.45-5.89,11.83-8.53,3.37-2.64,6.26-3.47,8.86,2.16l.58-11.33c5.27-7.73,7.49-17.09,3.66-21.95,2.08-5.6-10.12-11.58-2.9-8.22l-5.58-16.76,2.32-.51c.68-8.81-3.12-17.28-4.97-26.44-1.85-9.13-1.75-18.98,6.79-29.67-2.34-5.68-5.22-11.63-2.52-21.68l8.16-2.36c-1.4-3.69.65-9.44,2-14.58,1.35-5.15,1.98-9.7-2.27-11.23,9.61-3.77,11.74-11.11,11.41-19.36l-69.81,69.81c11.46-.43,24.53-4.9,32.48-2.71l.53-10.65c9.73.59,19.06-2.44,31.13-6.7l-.74-9.41c10.41-7.73,26.77,6.69,43.24,5.73-1.12,3.6-5.3,2.66-8.25.48,19.68,21.28,41.51-15.46,59.36.04,4.45-3.44,7.67-2.26,10.78.09-.41.04-.78.21-1.1.5.46.1,1.13.14,1.83.12,1.96,1.62,3.99,3.5,6.18,5-1.86-2.29-3.64-4.17-5.2-5.04,3.43-.2,8.63-1.36,13.73-3.73l2.17,10.11c.41-.13.75-.11,1.18-.28,5,3.73,4.02-4.79,1.35-12.4,2.57-1.65,4.92-3.66,6.74-6.09,4.06,16.32,13.38-5.5,18.92,11.9,3.44-8.49,25.63-6.38,28.35-24.26.17,2.34,1.68,3.45-1.08,3.6,5.68,2.03,11.36,4.07,16.46-.97l2.41,12.86,12.41-17.28c7.54,7.84,10.66,12.39,3.18,22.28,18.08-15.23,14.67-5.73,30.04-20.81l-.75,8.31c5.5-.32,14.28-11.47,17.59-4.59,12.29,15.81,60.82,2.18,92.38,16.89-6.12-24.49,14.67,10.96,15.92-8.01,1.84,5.78,6.24,9.06,1.13,14.08,16.1-5.67,24.19,9.2,35.31-6.8,1.84,5.81-3.45,8.48-1.81,11.93,1.29-1.26,5.12-5.04,6.79-1.57,1.64,3.44-2.36,4.85-4.91,7.37,16.45-.97,18.11-18.82,19.31-35.56,8.34,7.92,12.5,6.81,18.52-4.18,2.9,5.48,7.74,11.21-2.48,13.18,5.75.8,35.13,8.03,35.71-5.39,1.8,3.41,8.04,1,9.55-.56,12.9.81,14.04,2.02,26.71.74l-3.51-2.18c1.78-5.75,3.62-7.87,5.73-8.31l-17.52-17.52c.79,3.79-4,8.43-2.74,15.02l-1.65-.29c-11.69,23.42,5.58,10.11-7.76,33.22l10.08-1.26c21.67,2.15-12.78,20.47-4.49,33.88l5.76-4.84c7.41,7.32-29.47,20.47-32.18,27.83-1.89,1.6-3.02-2.53-4.4-4.77-12.8,19.26,13.18,2.5,16.25,16.84-7.12,2.65-18.11-3.41-19.43,6.25-5.75,4.81,23.11,28.01,9.46,41.19,5.49-2.9,10.96-5.79,15.08.88,1.96,10.22-20.72,27.62-3.43,36.85-1.51,1.3-2.94,1.79-4.31,1.84,4.46,7.81,7.41,25.38,16.79,30.08-34.79,7.22,16.92,48.55-15.17,48.38l1.72,24.02-3.28-.63c-2.12,15.35,5.57,20.78,13.27,26.18-2.18,3.55-5.19.96-6.86.66-6.47,22.43-5.11,24.67,10.89,43.48l-10.42,1.96c6.05,5.1-16.33,32.44-4.18,54.44-1.19-.22-3.2-.67-4.68-2.42,12.22,24.76-28.85,59.27,9.04,68.34l9.34,16.34c2.94-21.14,16.46,3.15,22.74-5.55,2.22,8.31-11.43,21.49-13.38,11.28l1.9-1.6c-19.75-3.75-7,26.26-20.46,25.69,1,41.59-9.96,82.13-10.8,121.08l15.36-4.49-.29,4.54,29.74-29.74-8.71-.58c-3.4-3.57-4.39-12.02,4.78-11.39-2.39-4.35-6.22-2.52-9.57.81-3.34,3.33-6.2,8.17-6.38,9.83-9.04-3.1-7.05-7.57-3.63-11.32,3.43-3.75,8.32-6.77,5.59-6.95l-7.45,1.15,1.62,1.8c-6.24,6.28-7.09,12.94-18.2,12.21-6.87-3.06-3.04-9.45-5.75-10.03.09-1.11-.8-1.61-4.17-.44l-16.01-1.22c1.78,4.01,3.59,8.03,5.44,12.05-7.76,5.99-15.4-.57-9.06,13.08-4.68-10.54-19.65-12.35-34.36-12.32-14.69.03-29.21,1.87-32-1.32-11.81,8.77-22.03,8.66-34.27,7.75,2.5,2.43,1.32,15.7-9.33,14.12,5.38-13.67,1.15-16.59-4.78-18.51-5.94-1.92-13.72-2.86-15.12-12.49,3.9,12.75-31.12,3.71-24.88,21.66-4.18-1.04-3.48-3.54-2.34-6.55,1.14-3.01,2.69-6.56.39-9.63-12.28,5.37-23.48,3.87-34.73,1.65-11.29-2.23-22.6-5.15-36.33-3.11-1.99,3.36.08,8.4-7.9,13.5-2.06-5.49-4-10.93-5.83-16.31-2.95.89-6.5,5.7-9.8,8.87-3.29,3.18-6.36,4.7-8.15-.87-.1,2.72-.22,6.84-4.28,7.96-10.89-3.73-23.2-4.52-36.34-4.16-13.12.36-27.06,1.87-40.84,2.93-13.77,1.07-27.37,1.68-39.5.5-12.12-1.18-22.74-4.16-30.3-10.04,2.44,5.18-2.71,5.92-8.33,6.3,2.43,1.18-6.01,6.93-8.58,10.71l-12.97-9.78c-6.68,5.21-12.81,5.55-18.66,5.83-5.85.28-11.43.52-17.23,5.3l8.75-1.9c-10.13,5.78-12.92,11.94-14.89,18.66-2,6.7-3.15,13.98-10.7,21.35,11.58-6.43,14.32-1.5,18.83,2.96,4.46,4.41,10.77,8.38,28.02-1.24,1.43,3.28-7.56,4.92-8.37,8.57,10.16-6.5,16.8-7.82,24.81-4.53l-2.49,1.65c30.53-.91,37.94,6.2,68.38,12.1l2.89-8.46c6.4,1.3,6.25,3.99,8.29,6.21,16.11-12.61-19.58-1.27-3.19-15.1-.81,8.6,11.75,9.03,23.69,9.68,11.96.67,23.35,1.59,21.15,11.82,5.54.23,6.07-2.34,6.61-4.9.54-2.56,1.09-5.12,6.55-4.93l.04,5.59,6.47-7.05c6.57,1.33,6.75,8.39,4.7,13.12-1.49-.61-5.71,1.16-7.83,1.51,3.1,3.42,10.14,3.1,16.62,2.16,6.48-.93,12.4-2.48,13.54-1.35l-9.11-3.78c16.44-2.21,33.01-1.28,49.87-1.14,16.82.13,33.92-.56,50.43-6.35l-.75-4.49c12.37-3.98,16.32-2.72,20.49-.86,4.14,1.85,8.47,4.29,21.15,2.5l-1.17,1.06c6.07-4.45,13.07-6.69,19.54-6.11-3.69,2.65-1.47,5.26.56,7.96,2.02,2.7,3.83,5.48-.94,8.39,13.22-4.38,16.53-6.15,19.09-8.91,2.53-2.77,4.32-6.53,13.81-15.04l2.11,7.68c6.67-6.9,7.78-10.55,19.96-12.49-5.41,3.28-4.05,6.2-2.82,9.4,1.21,3.2,2.3,6.67-4.02,10.98,5.66,4.25,11.11,5.34,16.13,4.96,5.02-.38,9.62-2.23,13.71-3.85,8.21-3.23,14.34-5.54,18.89,6.88,13.94-21.38-20.61-11.99-13.55-16.55-2.26-3.5.66-7.49,5-10.33,4.36-2.84,10.15-4.55,13.92-3.47,3.92.25,6.59,7.12,10.93,13.89,4.32,6.77,10.39,13.45,20.7,13.28-2.04-.11-2.28,1.53-4.32,1.41,3.67,2.76,7.59.91,11.65-.51,4.07-1.42,8.29-2.41,12.84,2.06,2.89-6.51,5.92-6.33,8.51-6.58,2.59-.26,4.72-.96,5.64-9.27l-18.72,3.83c5.25-2.11,10.42-7.8,16.21-12,5.81-4.2,12.22-6.9,20.37-3.02l5.99,2.85,10.72-19.56c.2-.37.44-.8.68-1.24.51.2,1.04.48,1.59,1.24l-18.98,18.98c-1.58,3.05-5.73,6.54-8.76,8.62,2.96,2.9,5.84,1.25,8.76.44l33.41-9.23-5.37-18.81c-.56-1.96-.71-3.95,1.35-6.03,5.14.45,7.45,2.7,8.56,6.03l7.58,22.76-45.53,15.2c-7.45,2.49-19.94-1.03-28.15,7.71,2.67,3.52,8.22.52,12.26-1.12,4.04-1.63,6.65-1.9,3.63,7.11,3.6-9.5,7.63-10.61,12.25-9.92l34.22,5.16,7.52-46.89c.98-6.11,5.56-13.22-4.68-20.97l9.96.87c-1.56-2.09-6.26-6.43-6.01-10.28l12.92,6.98c-11.02-10.71,9.65-20.65,3.65-30.93.3,21.51-12.01,4.83-19.29,13.92-13.34-26.53,26.08-15.26,21.29-44.97,1.41,4.02-5.98,15.1-10.6,8.81,2.06-5.65,5.88-13.12,11.13-16.59-2.09-19.68-10.26,3.02-16.4-5.36,12.15-6.7-4.94-9.66-8.82-18.29l10.13-.06c6.5-22.43-21.12-5.95-13.25-26.14l14.04,8.53-3.63-10.53,11.52,2.17c-8.54-11.45-6.35-15.02-3.11-26.24-7.12,2.61-18.38-1.47-18.7-11.4,6.01-6.77,9.63,3.79,8.18-10.29,6.33,3.18,14.29,6.66,4.97,12.79,3.3.63,6.34,3.13,9.62,3.78,6.91-7.3,1.57-18.34,1.47-23.43-.37,1.96-.92,4.31-2.35,5.51l-14.05-20.41c3.81-3.21,6.86-.66,9.87,1.86-1.11-4.14-5.77-7-6.63-13.07,8.23,1.57,16.73,1.2,20.61,9.8l-9.14-19.45c3.58-1.3,9.85-9.98,12.87-7.46,4.84-10.78-15.98-26.45-9.59-40.74-1.59-.74-3.12-2.23-4.3-5.27,1.86-13.43,11.96-25.34.68-41.26l14.75-9.03c-3.35-12.47-18.6,12.23-24.16-8.53-4.72-14.7,12.59-5.49,16.69-10.65-7.43-7.31-22.58-20.02-10.56-33.53,2.78,4.47.59,7.98,1.69,12.15ZM655.27,195.47c2.12,2.98,8.69,8.92,2.7,11.1-11.61-3.39-6.05-6.02-2.7-11.1ZM508.4,40.98c2.22-3.33,5.64-1.68,9.51,2.15-2.81.83-5.99.46-9.51-2.15ZM80.02,227.82c-.16-.09-.28-.15-.48-.2,3.95-7.03,2.38-4.51.48.2ZM75.55,241.77c1.36,1.01,2.74.61,4.13-.24-2.49-.36-2.63-3.26-1.88-6.74-2.61,1.47-4.42,3.56-2.25,6.98ZM559.91,686.48l2.38,2.64c-5.97,2.94-4.17.29-2.38-2.64Z"/>
          <path class="cls-3" d="M534.91,27.13c.84,1.71,1.08,3.59,1.27,5.5,1.17-1.7,1.2-3.67-1.27-5.5Z"/>
          <path class="cls-3" d="M667.13,444.93c-.09.16-.06.31-.12.47.6.26,1.23.39,1.84.47l-1.71-.94Z"/>
          <path class="cls-3" d="M57.11,21.23c2.84,1.47,4.43,3.3,5.48,5.23.15-2.47-1.14-4.57-5.48-5.23Z"/>
          <path class="cls-3" d="M90.95,305.89l-2.32-7.43c.39,3.83-1.76,5.9-3.35,8.4,2.26-.9,5.57-3.48,5.67-.97Z"/>
          <path class="cls-3" d="M31.18,401.57c1.15.81.13,2.69,1.28,3.47l4.32-2.21c-.26-5.34-3.77-7.73-5.61-1.26Z"/>
          <path class="cls-3" d="M58.75,323.93c-8.12,3.32-5.4,7.85-3.97,13.35-.03-.35-.09-.67.01-1.06,11.24-2.11,7.62-7.14,3.96-12.28Z"/>
          <path class="cls-3" d="M55.05,338.57c.35,1.73.53,3.55.14,5.49,4.49-.89.97-2.58-.14-5.49Z"/>
          <path class="cls-3" d="M80.83,257.03c-2.17,3.28,10.56-.85,7.17,1.52,5.23.22,2.14-3.52-1.63-5.69-3.77-2.18-8.19-2.74-5.54,4.17Z"/>
          <polygon class="cls-3" points="32.06 337.65 42.05 332.13 34 331.33 32.06 337.65"/>
          <path class="cls-3" d="M39.53,286.75l-2.84,10.6c1.7-.62,2.68.35,3.44,1.66.37-6.15,2.4-13.29-.59-12.26Z"/>
          <path class="cls-3" d="M40.13,299c-.2,3.2.02,6.13,1.66,7.39-.1-1.67-.42-5.22-1.66-7.39Z"/>
          <polygon class="cls-3" points="29.05 325.07 31.14 321.48 31.87 314.26 29.05 325.07"/>
          <path class="cls-3" d="M41.72,181.05l-2.97-10.32c-3.58-.66-5.77,2.54-4.35,6.38,2.5,2.26,3.87,6.04,7.32,3.94Z"/>
          <path class="cls-3" d="M13.28,218.29c2.14-3.36,4.46-3.95,7.87-6.2l-12.86,1.82,4.99,4.37Z"/>
          <path class="cls-3" d="M10.16,186.5c-3.59-.58-10.36-14.85-9.49-.77,3.56.68,6.58,11.37,9.49.77Z"/>
          <polygon class="cls-3" points="73.81 57 71.06 57.17 71.46 78.55 73.81 57"/>
          <path class="cls-3" d="M217.26,5.82c-12.8-5.12-3.04,13.21-14.61,6.8-3.01,5.06,9.45,5.23,6.37,9.6,7.73-5.34,11.78-2.34,8.23-16.4Z"/>
          <path class="cls-3" d="M209.03,22.22c-1.24.84-2.55,1.87-3.94,3.24,2.24-1.32,3.29-2.35,3.94-3.24Z"/>
          <polygon class="cls-3" points="90.03 689.6 85.28 686.76 85.37 691.71 90.03 689.6"/>
          <path class="cls-3" d="M63.83,701.62l7.7-9.63-13.45,8.93c2.23-.48,6.54-1.44,5.75.71Z"/>
          <path class="cls-3" d="M682.72,172.6l-3.28-.63c-3.55,1.27-3.81,3.2-4.37,7.06l7.65-6.43Z"/>
          <polygon class="cls-3" points="672.52 284.24 672.8 282.32 660.48 285.91 672.52 284.24"/>
          <path class="cls-3" d="M688.24,377.93c.52-3.82-2.23-8.32-1.7-12.16,2.22,8.34-13.66,13.19,1.7,12.16Z"/>
        </g>
      </g>
    </g>
    <text class="cls-4" transform="translate(371.58 77.24) rotate(11.46) scale(1.03 1)"><tspan x="0" y="0">B</tspan></text>
    <text class="cls-4" transform="translate(406.85 84.33) rotate(18.78) scale(1.03 1)"><tspan x="0" y="0">Y</tspan></text>
    <text class="cls-4" transform="translate(440.74 95.86) rotate(25.95) scale(1.03 1)"><tspan x="0" y="0">D</tspan></text>
    <text class="cls-4" transform="translate(471.3 110.45) rotate(33.51) scale(1.03 1)"><tspan x="0" y="0">G</tspan></text>
    <text class="cls-4" transform="translate(504.12 132.16) rotate(41.5) scale(1.03 1)"><tspan x="0" y="0">O</tspan></text>
    <text class="cls-4" transform="translate(532.51 157.11) rotate(49.51) scale(1.03 1)"><tspan x="0" y="0">S</tspan></text>
    <text class="cls-4" transform="translate(558.13 186.41) rotate(58.66) scale(1.03 1)"><tspan x="0" y="0">Z</tspan></text>
    <text class="cls-4" transform="translate(582.58 227.47) rotate(67.33) scale(1.03 1)"><tspan x="0" y="0">C</tspan></text>
    <text class="cls-4" transform="translate(595.85 257.49) rotate(76.11) scale(1.03 1)"><tspan x="0" y="0">Z</tspan></text>
  </g>
  <circle class="cls-1" cx="340.59" cy="324.71" r="70.06"/>
</svg>